<mxfile host="app.diagrams.net" agent="Mozilla/5.0 (X11; Linux x86_64; rv:123.0) Gecko/20100101 Firefox/123.0" version="24.7.10">
  <diagram name="Page-1" id="RhjZRFqSAWmOFCdcd4TU">
    <mxGraphModel dx="1105" dy="592" grid="1" gridSize="10" guides="1" tooltips="1" connect="1" arrows="1" fold="1" page="1" pageScale="1" pageWidth="850" pageHeight="1100" math="0" shadow="0">
      <root>
        <mxCell id="0" />
        <mxCell id="1" parent="0" />
        <mxCell id="JjtXYT9LwW7PFhqgBDxe-8" style="edgeStyle=orthogonalEdgeStyle;rounded=0;orthogonalLoop=1;jettySize=auto;html=1;exitX=1;exitY=0.25;exitDx=0;exitDy=0;entryX=0.5;entryY=1;entryDx=0;entryDy=0;" edge="1" parent="1" source="JjtXYT9LwW7PFhqgBDxe-2" target="JjtXYT9LwW7PFhqgBDxe-6">
          <mxGeometry relative="1" as="geometry" />
        </mxCell>
        <mxCell id="JjtXYT9LwW7PFhqgBDxe-9" style="edgeStyle=orthogonalEdgeStyle;rounded=0;orthogonalLoop=1;jettySize=auto;html=1;exitX=1;exitY=0.25;exitDx=0;exitDy=0;entryX=0.5;entryY=1;entryDx=0;entryDy=0;" edge="1" parent="1" source="JjtXYT9LwW7PFhqgBDxe-2" target="JjtXYT9LwW7PFhqgBDxe-7">
          <mxGeometry relative="1" as="geometry" />
        </mxCell>
        <mxCell id="JjtXYT9LwW7PFhqgBDxe-10" value="download_everything&lt;br&gt;&lt;br&gt;&lt;div&gt;1) Сходить в таблицу sources&lt;/div&gt;&lt;div&gt;2) Вытащить от туда все источники с alive=True&lt;/div&gt;&lt;div&gt;3) Зайти на каждый источник (допустим №1)&lt;br&gt;4) &quot;Украсть&quot; от туда все что плохо лежит (???)&lt;br&gt;5) Положить в /mnt/buffer&lt;br&gt;&lt;/div&gt;" style="edgeLabel;html=1;align=center;verticalAlign=middle;resizable=0;points=[];" vertex="1" connectable="0" parent="JjtXYT9LwW7PFhqgBDxe-9">
          <mxGeometry x="-0.1048" y="-2" relative="1" as="geometry">
            <mxPoint x="31" y="13" as="offset" />
          </mxGeometry>
        </mxCell>
        <mxCell id="JjtXYT9LwW7PFhqgBDxe-2" value="&lt;div&gt;Apache Airflow&lt;/div&gt;&lt;div&gt;&lt;br&gt;ПЕРВЫЙ ВАРИАНТ&lt;/div&gt;&lt;div&gt;Периодическая загрузка всего до чего дотянемся&lt;br&gt;1) download_everything&lt;br&gt;&lt;/div&gt;&lt;div&gt;2) decode&lt;/div&gt;&lt;div&gt;3) load_to_db&lt;/div&gt;&lt;div&gt;&lt;br&gt;&lt;/div&gt;&lt;div&gt;ВТОРОЙ ВАРИАНТ&amp;nbsp;&lt;/div&gt;&lt;div&gt;Периодическая загрузка того, что надо&lt;br&gt;1) download_sattellite&lt;/div&gt;&lt;div&gt;1.1) download_meteor&lt;br&gt;1.2) download_electro&lt;br&gt;...&lt;br&gt;1.n) download_что_хочешь&lt;/div&gt;&lt;div&gt;2) decode_sattellite&lt;br&gt;2.1) decode_meteor&lt;br&gt;2.2) decode_electro&lt;/div&gt;&lt;div&gt;...&lt;br&gt;2.n) decode_что_хочешь&lt;br&gt;&lt;/div&gt;" style="rounded=0;whiteSpace=wrap;html=1;" vertex="1" parent="1">
          <mxGeometry x="315" y="20" width="220" height="500" as="geometry" />
        </mxCell>
        <mxCell id="JjtXYT9LwW7PFhqgBDxe-3" value="&lt;div&gt;sources&lt;/div&gt;&lt;div&gt;1) name&lt;/div&gt;&lt;div&gt;2) type&lt;/div&gt;&lt;div&gt;3) link&lt;/div&gt;&lt;div&gt;4) alive&lt;br&gt;5) sattelites&lt;/div&gt;&lt;div&gt;(потенциально хранить, откуда какие спутники приходят)&lt;br&gt;&lt;/div&gt;" style="rounded=0;whiteSpace=wrap;html=1;" vertex="1" parent="1">
          <mxGeometry x="20" y="40" width="120" height="160" as="geometry" />
        </mxCell>
        <mxCell id="JjtXYT9LwW7PFhqgBDxe-4" style="edgeStyle=orthogonalEdgeStyle;rounded=0;orthogonalLoop=1;jettySize=auto;html=1;exitX=1;exitY=0.25;exitDx=0;exitDy=0;entryX=0.025;entryY=0.11;entryDx=0;entryDy=0;entryPerimeter=0;" edge="1" parent="1" source="JjtXYT9LwW7PFhqgBDxe-3" target="JjtXYT9LwW7PFhqgBDxe-2">
          <mxGeometry relative="1" as="geometry" />
        </mxCell>
        <mxCell id="JjtXYT9LwW7PFhqgBDxe-5" value="check_sources&lt;br&gt;&lt;br&gt;1) Сходить в таблицу&lt;br&gt;2) Пингануть источник&lt;br&gt;3) Выдать ответ&lt;br&gt;&lt;div&gt;Если живой - alive=True&lt;/div&gt;&lt;div&gt;Если умер - alive=False&lt;br&gt;&lt;/div&gt;" style="edgeLabel;html=1;align=center;verticalAlign=middle;resizable=0;points=[];" vertex="1" connectable="0" parent="JjtXYT9LwW7PFhqgBDxe-4">
          <mxGeometry x="-0.1667" y="1" relative="1" as="geometry">
            <mxPoint x="13" as="offset" />
          </mxGeometry>
        </mxCell>
        <mxCell id="JjtXYT9LwW7PFhqgBDxe-6" value="Источник 1" style="whiteSpace=wrap;html=1;aspect=fixed;" vertex="1" parent="1">
          <mxGeometry x="590" y="20" width="80" height="80" as="geometry" />
        </mxCell>
        <mxCell id="JjtXYT9LwW7PFhqgBDxe-7" value="Источник n" style="whiteSpace=wrap;html=1;aspect=fixed;" vertex="1" parent="1">
          <mxGeometry x="730" y="20" width="80" height="80" as="geometry" />
        </mxCell>
        <mxCell id="JjtXYT9LwW7PFhqgBDxe-11" value="&lt;div&gt;ПОРЯДОК ВЫПОЛНЕНИЯ ФУНКЦИЙ&lt;/div&gt;&lt;div&gt;&lt;br&gt;&lt;/div&gt;&lt;div&gt;Первый вариант реализации:&lt;br&gt;&lt;/div&gt;&lt;div&gt;1) check_sources - с заданной периодичностью. Скорее всего будет вызываться при вызове любого download_everything.&lt;/div&gt;&lt;div&gt;2) download_everything&lt;br&gt;&lt;/div&gt;" style="text;html=1;align=left;verticalAlign=top;whiteSpace=wrap;rounded=0;" vertex="1" parent="1">
          <mxGeometry x="70" y="580" width="780" height="320" as="geometry" />
        </mxCell>
      </root>
    </mxGraphModel>
  </diagram>
</mxfile>
